<svg width="24" height="24" viewBox="0 0 24 24" fill="none" xmlns="http://www.w3.org/2000/svg">
<path d="M12 2C14.7614 2 17 4.23858 17 7V8.5H18.75C19.9926 8.5 21 9.50736 21 10.75V18.75C21 19.9926 19.9926 21 18.75 21H5.25C4.00736 21 3 19.9926 3 18.75V10.75C3 9.50736 4.00736 8.5 5.25 8.5H7V7C7 4.23858 9.23858 2 12 2ZM5.25 10C4.83579 10 4.5 10.3358 4.5 10.75V18.75C4.5 19.1642 4.83579 19.5 5.25 19.5H18.75C19.1642 19.5 19.5 19.1642 19.5 18.75V10.75C19.5 10.3358 19.1642 10 18.75 10H5.25ZM12 12C12.8284 12 13.5 12.6716 13.5 13.5C13.5 14.0953 13.152 14.6073 12.6494 14.8496L13.25 17.25H10.75L11.3496 14.8496C10.8474 14.6072 10.5 14.095 10.5 13.5C10.5 12.6716 11.1716 12 12 12ZM12 3.5C10.067 3.5 8.5 5.067 8.5 7V8.5H15.5V7C15.5 5.067 13.933 3.5 12 3.5Z" fill="#131313"/>
</svg>
