<svg width="24" height="24" viewBox="0 0 24 24" fill="none" xmlns="http://www.w3.org/2000/svg">
<path fill-rule="evenodd" clip-rule="evenodd" d="M12 2.25C12.2847 2.25 12.5451 2.41111 12.6719 2.66602L15.2774 7.90918L21.1074 8.75098C21.3905 8.79192 21.6258 8.99062 21.7139 9.2627C21.8018 9.53483 21.727 9.8333 21.5215 10.0322L17.3067 14.1123L18.3018 19.8721C18.3503 20.1532 18.2344 20.4373 18.0039 20.6055C17.7735 20.7735 17.4676 20.797 17.2149 20.665L12 17.9414L6.78517 20.665C6.53237 20.797 6.22649 20.7735 5.99611 20.6055C5.76576 20.4373 5.64973 20.1531 5.69826 19.8721L6.6924 14.1123L2.47853 10.0322C2.27311 9.83331 2.19823 9.53478 2.28615 9.2627C2.37417 8.99064 2.60964 8.79198 2.8926 8.75098L8.7217 7.90918L11.3281 2.66602L11.3819 2.5752C11.5204 2.37351 11.7509 2.25006 12 2.25ZM9.89064 8.92969C9.78102 9.1502 9.5699 9.30263 9.32619 9.33789L4.61916 10.0166L8.0215 13.3105C8.19965 13.483 8.28132 13.7322 8.23928 13.9766L7.43459 18.6328L11.6533 16.4316L11.7363 16.3936C11.9345 16.3192 12.1565 16.3325 12.3467 16.4316L16.5645 18.6328L15.7608 13.9766C15.7187 13.7323 15.8005 13.483 15.9785 13.3105L19.3799 10.0166L14.6738 9.33789C14.4302 9.30258 14.219 9.15018 14.1094 8.92969L12 4.68555L9.89064 8.92969Z" fill="#131313"/>
</svg>
