<svg width="24" height="24" viewBox="0 0 24 24" fill="none" xmlns="http://www.w3.org/2000/svg">
<path fill-rule="evenodd" clip-rule="evenodd" d="M12.0001 1.99976C12.5704 1.99978 13.0179 2.12937 13.4103 2.35425C13.7669 2.55863 14.0677 2.84139 14.3058 3.05054C14.7811 3.46805 15.365 3.94429 16.7228 4.23608C17.384 4.37817 17.9092 4.49104 18.3097 4.59937C18.6964 4.70396 19.0616 4.82668 19.3468 5.03003C19.5528 5.17693 19.7372 5.33422 19.8986 5.53394C20.0597 5.73346 20.1743 5.94645 20.2746 6.17847C20.4067 6.48437 20.4551 6.81261 20.4777 7.15796C20.5001 7.50124 20.5001 7.92889 20.5001 8.44995V10.3064C20.5001 12.6094 20.5086 13.9294 20.1212 15.1228C19.7861 16.155 19.2376 17.106 18.5119 17.9128C17.6728 18.8455 16.5258 19.4982 14.5324 20.6511L13.6124 21.1833C13.2078 21.4173 12.8603 21.6295 12.4738 21.7087C12.157 21.7736 11.8298 21.769 11.5148 21.696C11.1303 21.607 10.7884 21.3867 10.3898 21.1423L9.20522 20.4167C7.29618 19.2467 6.19851 18.5831 5.39662 17.6589C4.70285 16.8593 4.17968 15.9261 3.86049 14.9167C3.49162 13.7502 3.50014 12.4672 3.50014 10.2283V8.44995C3.50014 7.92889 3.50013 7.50124 3.5226 7.15796C3.54522 6.81262 3.59359 6.48436 3.72572 6.17847C3.82597 5.94649 3.94056 5.73344 4.1017 5.53394C4.26305 5.33428 4.44748 5.1769 4.65346 5.03003C4.93866 4.82674 5.30396 4.70394 5.69057 4.59937C6.09107 4.49105 6.61638 4.37815 7.27748 4.23608C8.63518 3.94428 9.21916 3.46803 9.69447 3.05054C9.93256 2.8414 10.2335 2.55858 10.59 2.35425C10.9824 2.12942 11.43 1.99976 12.0001 1.99976ZM12.0001 3.49976C11.6803 3.49976 11.4916 3.56601 11.3361 3.65503C11.1449 3.76459 10.9849 3.91381 10.6847 4.17749C10.0827 4.7063 9.27401 5.34058 7.59291 5.7019C6.91502 5.84758 6.43554 5.95107 6.08217 6.04663C5.71538 6.14585 5.57616 6.215 5.52455 6.25171C5.38693 6.34984 5.31692 6.41669 5.26869 6.47632C5.22049 6.53598 5.16975 6.61893 5.10268 6.77417C5.07095 6.84779 5.03705 6.97569 5.01869 7.25562C5.00018 7.53842 5.00014 7.90869 5.00014 8.44995V10.2283C5.00014 12.5651 5.00862 13.571 5.29115 14.4646C5.54855 15.2784 5.97009 16.0308 6.52944 16.6755C7.14368 17.3835 7.99674 17.9161 9.9894 19.1375L11.174 19.863C11.6617 20.1619 11.7632 20.2141 11.8537 20.2351C11.9585 20.2593 12.0676 20.2606 12.173 20.239C12.2639 20.2203 12.367 20.1715 12.8615 19.8855L13.7814 19.3533C15.8626 18.1497 16.754 17.6234 17.3966 16.9089C17.9818 16.2583 18.4242 15.4922 18.6945 14.6599C18.9912 13.7459 19.0001 12.7105 19.0001 10.3064V8.44995C19.0001 7.90869 19.0001 7.53842 18.9816 7.25562C18.9632 6.97568 18.9293 6.8478 18.8976 6.77417C18.8305 6.61886 18.7798 6.53599 18.7316 6.47632C18.6834 6.41666 18.6134 6.34991 18.4757 6.25171C18.4243 6.21503 18.2853 6.14596 17.9181 6.04663C17.5647 5.95106 17.0853 5.8476 16.4074 5.7019C14.7261 5.34059 13.9176 4.70632 13.3156 4.17749C13.0153 3.91372 12.8554 3.76461 12.6642 3.65503C12.5087 3.56597 12.32 3.49977 12.0001 3.49976Z" fill="#131313"/>
<path d="M8.75 12.25L11.25 15L15.25 9.75" stroke="#131313" stroke-width="1.5" stroke-linecap="round" stroke-linejoin="round"/>
</svg>
